<?xml version="1.0" encoding="UTF-8" standalone="no"?>
<!-- Created with Inkscape (http://www.inkscape.org/) -->
<svg
   xmlns:dc="http://purl.org/dc/elements/1.1/"
   xmlns:cc="http://web.resource.org/cc/"
   xmlns:rdf="http://www.w3.org/1999/02/22-rdf-syntax-ns#"
   xmlns:svg="http://www.w3.org/2000/svg"
   xmlns="http://www.w3.org/2000/svg"
   xmlns:sodipodi="http://sodipodi.sourceforge.net/DTD/sodipodi-0.dtd"
   xmlns:inkscape="http://www.inkscape.org/namespaces/inkscape"
   width="210"
   height="230"
   id="svg2"
   sodipodi:version="0.32"
   inkscape:version="0.45.1"
   version="1.0"
   sodipodi:docbase="C:\Users\Jan\Desktop"
   sodipodi:docname="three-link-manipulator.svg"
   inkscape:output_extension="org.inkscape.output.svg.inkscape">
  <defs
     id="defs4">
    <marker
       inkscape:stockid="Arrow1Mstart"
       orient="auto"
       refY="0"
       refX="0"
       id="Arrow1Mstart"
       style="overflow:visible">
      <path
         id="path15011"
         d="M 0,0 L 5,-5 L -12.5,0 L 5,5 L 0,0 z "
         style="fill-rule:evenodd;stroke:#000000;stroke-width:1pt;marker-start:none"
         transform="matrix(0.4,0,0,0.4,4,0)" />
    </marker>
    <marker
       inkscape:stockid="Arrow1Mend"
       orient="auto"
       refY="0"
       refX="0"
       id="Arrow1Mend"
       style="overflow:visible">
      <path
         id="path15014"
         d="M 0,0 L 5,-5 L -12.5,0 L 5,5 L 0,0 z "
         style="fill-rule:evenodd;stroke:#000000;stroke-width:1pt;marker-start:none"
         transform="matrix(-0.4,0,0,-0.4,-4,0)" />
    </marker>
  </defs>
  <sodipodi:namedview
     id="base"
     pagecolor="#ffffff"
     bordercolor="#666666"
     borderopacity="1.0"
     gridtolerance="10000"
     guidetolerance="10"
     objecttolerance="10000"
     inkscape:pageopacity="0.0"
     inkscape:pageshadow="2"
     inkscape:zoom="2.8347826"
     inkscape:cx="105"
     inkscape:cy="115"
     inkscape:document-units="px"
     inkscape:current-layer="layer1"
     width="210px"
     height="230px"
     showgrid="true"
     gridspacingx="2px"
     gridspacingy="2px"
     inkscape:object-nodes="false"
     inkscape:object-paths="true"
     inkscape:grid-points="true"
     inkscape:grid-bbox="false"
     inkscape:window-width="1440"
     inkscape:window-height="850"
     inkscape:window-x="-8"
     inkscape:window-y="-8"
     inkscape:object-points="true" />
  <metadata
     id="metadata7">
    <rdf:RDF>
      <cc:Work
         rdf:about="">
        <dc:format>image/svg+xml</dc:format>
        <dc:type
           rdf:resource="http://purl.org/dc/dcmitype/StillImage" />
      </cc:Work>
    </rdf:RDF>
  </metadata>
  <g
     inkscape:label="Layer 1"
     inkscape:groupmode="layer"
     id="layer1">
    <path
       style="fill:#ffffff;fill-opacity:1;fill-rule:evenodd;stroke:#000000;stroke-width:2;stroke-linecap:butt;stroke-linejoin:miter;stroke-miterlimit:4;stroke-dasharray:none;stroke-opacity:1"
       d="M 95.62178,173.66025 L 78.301276,163.66026 L 118.30127,94.37823 L 135.62178,104.37822 L 95.62178,173.66025 z "
       id="path11667" />
    <path
       style="fill:#ffffff;fill-opacity:1;fill-rule:evenodd;stroke:#000000;stroke-width:2;stroke-linecap:butt;stroke-linejoin:miter;stroke-miterlimit:4;stroke-dasharray:none;stroke-opacity:1"
       d="M 131.96152,118.03847 L 111.96154,118.03848 L 111.96153,78.03848 L 131.96152,78.03848 L 131.96152,118.03847 z "
       id="path11741"
       sodipodi:nodetypes="ccccc" />
    <path
       style="fill:none;fill-rule:evenodd;stroke:#000000;stroke-width:2;stroke-linecap:butt;stroke-linejoin:miter;stroke-miterlimit:4;stroke-dasharray:none;stroke-opacity:1"
       d="M 111.96153,78.03848 L 105.96152,78.03848 L 107.96152,66.03847"
       id="path11747"
       sodipodi:nodetypes="ccc" />
    <path
       style="fill:none;fill-rule:evenodd;stroke:#000000;stroke-width:2;stroke-linecap:butt;stroke-linejoin:miter;stroke-miterlimit:4;stroke-dasharray:none;stroke-opacity:1"
       d="M 131.96152,78.03848 L 137.96152,78.03848 L 135.96153,66.03848"
       id="path11749"
       sodipodi:nodetypes="ccc" />
    <path
       style="fill:#ffffff;fill-opacity:1;fill-rule:evenodd;stroke:#000000;stroke-width:2;stroke-linecap:butt;stroke-linejoin:miter;stroke-miterlimit:4;stroke-dasharray:none;stroke-opacity:1"
       d="M 36.339746,203.66026 L 26.339746,186.33975 L 95.62178,146.33975 L 105.62178,163.66026 L 36.339746,203.66026 z "
       id="path11767" />
    <path
       sodipodi:type="arc"
       style="opacity:1;fill:none;fill-opacity:1;stroke:#000000;stroke-width:2;stroke-linejoin:round;stroke-miterlimit:4;stroke-dasharray:none;stroke-dashoffset:0;stroke-opacity:1"
       id="path11661"
       sodipodi:cx="130"
       sodipodi:cy="260"
       sodipodi:rx="6"
       sodipodi:ry="6"
       d="M 136 260 A 6 6 0 1 1  124,260 A 6 6 0 1 1  136 260 z"
       transform="matrix(0.5,-0.8660254,0.8660254,0.5,-198.20508,142.58331)" />
    <path
       style="fill:none;fill-rule:evenodd;stroke:#000000;stroke-width:2;stroke-linecap:butt;stroke-linejoin:miter;stroke-miterlimit:4;stroke-dasharray:none;stroke-opacity:1"
       d="M 10,210 L 70,210"
       id="path12077" />
    <path
       style="fill:none;fill-rule:evenodd;stroke:#000000;stroke-width:1px;stroke-linecap:butt;stroke-linejoin:miter;stroke-opacity:1"
       d="M 20,210 L 30,220"
       id="path13048" />
    <path
       style="fill:#ffffff;fill-opacity:1;fill-rule:evenodd;stroke:#000000;stroke-width:2;stroke-linecap:butt;stroke-linejoin:miter;stroke-miterlimit:4;stroke-dasharray:none;stroke-opacity:1"
       d="M 40,180 C 34.48,180 30,184.48 30,190 L 30,210 L 50,210 L 50,190 C 50,184.48 45.52,180 40,180 z "
       id="path2160" />
    <path
       style="fill:none;fill-rule:evenodd;stroke:#000000;stroke-width:1px;stroke-linecap:butt;stroke-linejoin:miter;stroke-opacity:1"
       d="M 30,210 L 40,220"
       id="path13050" />
    <path
       sodipodi:type="arc"
       style="opacity:1;fill:none;fill-opacity:1;stroke:#000000;stroke-width:2;stroke-linejoin:round;stroke-miterlimit:4;stroke-dasharray:none;stroke-dashoffset:0;stroke-opacity:1"
       id="path11761"
       sodipodi:cx="130"
       sodipodi:cy="260"
       sodipodi:rx="6"
       sodipodi:ry="6"
       d="M 136 260 A 6 6 0 1 1  124,260 A 6 6 0 1 1  136 260 z"
       transform="matrix(0.8660254,-0.5,0.5,0.8660254,-202.5833,29.8334)" />
    <path
       style="fill:none;fill-rule:evenodd;stroke:#000000;stroke-width:1px;stroke-linecap:butt;stroke-linejoin:miter;stroke-opacity:1"
       d="M 40,210 L 50,220"
       id="path13052" />
    <path
       style="fill:none;fill-rule:evenodd;stroke:#000000;stroke-width:1px;stroke-linecap:butt;stroke-linejoin:miter;stroke-opacity:1"
       d="M 50,210 L 60,220"
       id="path13054" />
    <path
       style="fill:none;fill-rule:evenodd;stroke:#000000;stroke-width:1;stroke-linecap:butt;stroke-linejoin:miter;stroke-miterlimit:4;stroke-dasharray:3, 3;stroke-dashoffset:0;stroke-opacity:1"
       d="M 70,190 L 170,190"
       id="path13056" />
    <path
       style="fill:none;fill-rule:evenodd;stroke:#000000;stroke-width:1;stroke-linecap:butt;stroke-linejoin:miter;stroke-miterlimit:4;stroke-dasharray:3, 3;stroke-dashoffset:0;stroke-opacity:1"
       d="M 110,160 L 196.60254,110"
       id="path13058" />
    <path
       sodipodi:type="arc"
       style="opacity:1;fill:none;fill-opacity:1;stroke:#000000;stroke-width:2;stroke-linejoin:round;stroke-miterlimit:4;stroke-dasharray:none;stroke-dashoffset:0;stroke-opacity:1"
       id="path11671"
       sodipodi:cx="130"
       sodipodi:cy="260"
       sodipodi:rx="6"
       sodipodi:ry="6"
       d="M 136 260 A 6 6 0 1 1  124,260 A 6 6 0 1 1  136 260 z"
       transform="matrix(0.8660254,-0.5,0.5,0.8660254,-120.62177,-52.128131)" />
    <path
       style="fill:none;fill-rule:evenodd;stroke:#000000;stroke-width:1;stroke-linecap:butt;stroke-linejoin:miter;stroke-miterlimit:4;stroke-dasharray:3, 3;stroke-dashoffset:0;stroke-opacity:1"
       d="M 140,100 L 190,13.39746"
       id="path13060" />
    <path
       style="fill:#000000;fill-opacity:1;stroke:none;stroke-width:0.4852742;stroke-linejoin:round;stroke-miterlimit:4;stroke-dashoffset:0;stroke-opacity:1"
       d="M 142,63.5 L 142,64.5 C 147.78175,64.5 152.65163,65.7144 157.65877,68.4375 L 158.18958,67.625 C 153.04673,64.8281 147.93844,63.5 142,63.5 z "
       id="path13062" />
    <path
       style="fill:#000000;fill-opacity:1;fill-rule:evenodd;stroke:none;stroke-width:0.4pt;stroke-opacity:1"
       d="M 148.125,61.8125 L 140.90625,63.75 L 140,64 L 140.90625,64.25 L 148.125,66.1875 L 148.34375,65.75 L 148.25,65.6875 L 146.46875,64 L 148.25,62.3125 L 148.34375,62.25 L 148.125,61.8125 z M 147.25,62.59375 L 147.25,65.40625 L 147.25,62.59375 z "
       id="path24344"
       sodipodi:nodetypes="cccccccccccccc" />
    <path
       style="fill:#000000;fill-opacity:1;stroke:none;stroke-width:0.4852742;stroke-linejoin:round;stroke-miterlimit:4;stroke-dashoffset:0;stroke-opacity:1"
       d="M 124.18958,133.625 L 123.65877,134.4375 C 128.66591,137.16062 132.24657,140.53346 135.13744,145.25 L 136,144.75 C 133.03078,139.90562 129.33242,136.42192 124.18958,133.625 z "
       id="path15202" />
    <path
       style="fill:#000000;fill-opacity:1;fill-rule:evenodd;stroke:none;stroke-width:0.4pt;stroke-opacity:1"
       d="M 122.21875,133.09375 L 122.84375,133.71875 L 128.0625,138.78125 L 128.75,139.4375 L 128.5,138.53125 L 127.78125,136.125 L 130.375,135.5 L 130.375,135 L 123.09375,133.28125 L 122.21875,133.09375 z "
       id="path24328"
       sodipodi:nodetypes="cccccccccc" />
    <path
       style="fill:#000000;fill-opacity:1;stroke:none;stroke-width:0.4852742;stroke-linejoin:round;stroke-miterlimit:4;stroke-dashoffset:0;stroke-opacity:1"
       d="M 102.74847,174.75 L 101.88591,175.25 C 104.77679,179.96654 106.06601,184.5538 106.06601,190 L 107.12762,190 C 107.12762,184.4062 105.71769,179.59438 102.74847,174.75 z "
       id="path15204" />
    <path
       style="fill:#000000;fill-opacity:1;fill-rule:evenodd;stroke:none;stroke-width:0.4pt;stroke-opacity:1"
       d="M 101.34375,173.40625 L 101.5625,174.21875 L 103.40625,181.0625 L 103.625,181.96875 L 103.875,181.09375 L 104.5625,178.65625 L 107.15625,179.3125 L 107.375,178.875 L 101.96875,173.96875 L 101.34375,173.40625 z "
       id="path24336"
       sodipodi:nodetypes="cccccccccc" />
    <path
       style="font-size:20px;font-style:italic;font-weight:normal;fill:#000000;fill-opacity:1;stroke:none;stroke-width:1px;stroke-linecap:butt;stroke-linejoin:miter;stroke-opacity:1;font-family:Book Antiqua"
       d="M 152.89453,33.546875 C 154.47655,33.546889 155.26757,34.689466 155.26758,36.974609 C 155.26757,38.693369 155.03482,40.574877 154.56934,42.619141 C 154.10383,44.663415 153.347,46.123374 152.29883,46.999023 C 151.25065,47.874675 150.22526,48.3125 149.22266,48.3125 C 147.69922,48.3125 146.9375,47.228516 146.9375,45.060547 C 146.9375,43.47852 147.11654,41.824876 147.47461,40.099609 C 147.83268,38.374359 148.21191,37.119477 148.6123,36.334961 C 149.01269,35.550468 149.62304,34.889662 150.44336,34.352539 C 151.26367,33.815444 152.08072,33.546889 152.89453,33.546875 L 152.89453,33.546875 z M 153.61719,40.001953 C 153.77343,38.778004 153.85155,37.720062 153.85156,36.828125 C 153.85155,35.890637 153.71646,35.22332 153.44629,34.826172 C 153.1761,34.42905 152.75455,34.230483 152.18164,34.230469 C 151.43945,34.230483 150.82096,34.593438 150.32617,35.319336 C 149.83138,36.045259 149.34961,37.612641 148.88086,40.021484 C 149.51237,40.041024 150.1276,40.050789 150.72656,40.050781 L 153.61719,40.001953 z M 148.74414,40.832031 C 148.47721,42.199225 148.34375,43.481775 148.34375,44.679688 C 148.34375,45.851565 148.46745,46.627931 148.71484,47.008789 C 148.96224,47.389649 149.33659,47.580079 149.83789,47.580078 C 150.86653,47.580079 151.65755,46.976238 152.21094,45.768555 C 152.76432,44.560876 153.20377,42.912114 153.5293,40.822266 C 152.80012,40.809252 152.12304,40.802742 151.49805,40.802734 L 148.74414,40.832031 z "
       id="text16175" />
    <path
       style="font-size:14px;font-style:normal;font-weight:normal;fill:#000000;fill-opacity:1;stroke:none;stroke-width:1px;stroke-linecap:butt;stroke-linejoin:miter;stroke-opacity:1;font-family:Book Antiqua"
       d="M 156.375,45.894531 L 156.69141,44.458984 C 156.94141,44.166023 157.23633,43.947274 157.57617,43.802734 C 157.91601,43.658211 158.30078,43.585946 158.73047,43.585938 C 159.38672,43.585946 159.90625,43.755868 160.28906,44.095703 C 160.67187,44.435554 160.86328,44.855476 160.86328,45.355469 C 160.86328,45.691413 160.78125,46.004889 160.61719,46.295898 C 160.45312,46.586919 160.11914,46.941411 159.61523,47.359375 C 159.86523,47.35938 160.12304,47.408208 160.38867,47.505859 C 160.75585,47.642582 161.03417,47.848637 161.22363,48.124023 C 161.41308,48.399418 161.50781,48.730472 161.50781,49.117188 C 161.50781,49.902346 161.16992,50.60547 160.49414,51.226563 C 159.81836,51.847656 159.01172,52.158203 158.07422,52.158203 C 157.83203,52.158203 157.5918,52.132812 157.35352,52.082031 C 157.11523,52.03125 156.87695,51.955078 156.63867,51.853516 C 156.56055,51.38086 156.40234,50.796876 156.16406,50.101563 L 156.48633,49.966797 C 156.73242,50.533205 156.93066,50.904298 157.08105,51.080078 C 157.23144,51.25586 157.42773,51.395508 157.66992,51.499023 C 157.91211,51.602539 158.20312,51.654297 158.54297,51.654297 C 159.1289,51.654297 159.58593,51.473633 159.91406,51.112305 C 160.24218,50.750978 160.40625,50.244142 160.40625,49.591797 C 160.40625,49.041019 160.26757,48.614261 159.99023,48.311523 C 159.71289,48.008793 159.3457,47.857426 158.88867,47.857422 C 158.53711,47.857426 158.16601,47.957035 157.77539,48.15625 L 157.69336,48.097656 L 157.80469,47.429688 C 158.01172,47.45313 158.16601,47.464848 158.26758,47.464844 C 158.74414,47.464848 159.13379,47.316411 159.43652,47.019531 C 159.73925,46.722662 159.89062,46.33399 159.89063,45.853516 C 159.89062,45.416022 159.75879,45.065437 159.49512,44.801758 C 159.23144,44.538093 158.88672,44.406258 158.46094,44.40625 C 158.17969,44.406258 157.90918,44.467781 157.64941,44.59082 C 157.38965,44.713874 157.19726,44.853523 157.07227,45.009766 C 157.02148,45.076179 156.95508,45.234382 156.87305,45.484375 L 156.73828,45.894531 L 156.375,45.894531 z "
       id="text16179" />
    <path
       style="font-size:20px;font-style:italic;font-weight:normal;fill:#000000;fill-opacity:1;stroke:none;stroke-width:1px;stroke-linecap:butt;stroke-linejoin:miter;stroke-opacity:1;font-family:Book Antiqua"
       d="M 126.89453,165.54688 C 128.47655,165.54689 129.26757,166.68947 129.26758,168.97461 C 129.26757,170.69337 129.03482,172.57488 128.56934,174.61914 C 128.10383,176.66341 127.347,178.12337 126.29883,178.99902 C 125.25065,179.87467 124.22526,180.3125 123.22266,180.3125 C 121.69922,180.3125 120.9375,179.22852 120.9375,177.06055 C 120.9375,175.47852 121.11654,173.82488 121.47461,172.09961 C 121.83268,170.37436 122.21191,169.11948 122.6123,168.33496 C 123.01269,167.55047 123.62304,166.88966 124.44336,166.35254 C 125.26367,165.81544 126.08072,165.54689 126.89453,165.54688 L 126.89453,165.54688 z M 127.61719,172.00195 C 127.77343,170.778 127.85155,169.72006 127.85156,168.82813 C 127.85155,167.89064 127.71646,167.22332 127.44629,166.82617 C 127.1761,166.42905 126.75455,166.23048 126.18164,166.23047 C 125.43945,166.23048 124.82096,166.59344 124.32617,167.31934 C 123.83138,168.04526 123.34961,169.61264 122.88086,172.02148 C 123.51237,172.04102 124.1276,172.05079 124.72656,172.05078 L 127.61719,172.00195 z M 122.74414,172.83203 C 122.47721,174.19922 122.34375,175.48178 122.34375,176.67969 C 122.34375,177.85156 122.46745,178.62793 122.71484,179.00879 C 122.96224,179.38965 123.33659,179.58008 123.83789,179.58008 C 124.86653,179.58008 125.65755,178.97624 126.21094,177.76855 C 126.76432,176.56088 127.20377,174.91211 127.5293,172.82227 C 126.80012,172.80925 126.12304,172.80274 125.49805,172.80273 L 122.74414,172.83203 z "
       id="text16183" />
    <path
       style="font-size:14px;font-style:normal;font-weight:normal;fill:#000000;fill-opacity:1;stroke:none;stroke-width:1px;stroke-linecap:butt;stroke-linejoin:miter;stroke-opacity:1;font-family:Book Antiqua"
       d="M 130.99609,184.04102 L 130.99609,183.66016 L 131.45313,183.64258 C 131.98047,183.62695 132.2959,183.55273 132.39941,183.41992 C 132.50293,183.28711 132.55273,182.75 132.54883,181.80859 L 132.58984,178.55664 C 132.58984,177.4668 132.57812,176.86719 132.55469,176.75781 C 132.54297,176.69141 132.50781,176.65821 132.44922,176.6582 C 132.41015,176.65821 132.32031,176.68946 132.17969,176.75195 C 131.51562,177.04493 131.06055,177.26173 130.81445,177.40234 C 130.64258,177.50391 130.54297,177.55469 130.51563,177.55469 C 130.46484,177.55469 130.43555,177.52149 130.42773,177.45508 L 130.38672,176.88672 C 131.61328,176.51954 132.66015,176.10743 133.52734,175.65039 L 133.69727,175.72656 L 133.67383,176.38867 L 133.61523,179.76953 L 133.57422,182.07813 C 133.57422,182.63281 133.59765,183 133.64453,183.17969 C 133.6914,183.35938 133.7666,183.47949 133.87012,183.54004 C 133.97363,183.60059 134.22265,183.63477 134.61719,183.64258 L 135.15039,183.66016 L 135.15039,184.04102 C 134.16992,184.01367 133.47461,184 133.06445,184 C 132.59179,184 131.90234,184.01367 130.99609,184.04102 L 130.99609,184.04102 z "
       id="text16187" />
    <path
       style="font-size:20px;font-style:italic;font-weight:normal;fill:#000000;fill-opacity:1;stroke:none;stroke-width:1px;stroke-linecap:butt;stroke-linejoin:miter;stroke-opacity:1;font-family:Book Antiqua"
       d="M 152.89453,105.54688 C 154.47655,105.54689 155.26757,106.68947 155.26758,108.97461 C 155.26757,110.69337 155.03482,112.57488 154.56934,114.61914 C 154.10383,116.66341 153.347,118.12337 152.29883,118.99902 C 151.25065,119.87467 150.22526,120.3125 149.22266,120.3125 C 147.69922,120.3125 146.9375,119.22852 146.9375,117.06055 C 146.9375,115.47852 147.11654,113.82488 147.47461,112.09961 C 147.83268,110.37436 148.21191,109.11948 148.6123,108.33496 C 149.01269,107.55047 149.62304,106.88966 150.44336,106.35254 C 151.26367,105.81544 152.08072,105.54689 152.89453,105.54688 L 152.89453,105.54688 z M 153.61719,112.00195 C 153.77343,110.778 153.85155,109.72006 153.85156,108.82813 C 153.85155,107.89064 153.71646,107.22332 153.44629,106.82617 C 153.1761,106.42905 152.75455,106.23048 152.18164,106.23047 C 151.43945,106.23048 150.82096,106.59344 150.32617,107.31934 C 149.83138,108.04526 149.34961,109.61264 148.88086,112.02148 C 149.51237,112.04102 150.1276,112.05079 150.72656,112.05078 L 153.61719,112.00195 z M 148.74414,112.83203 C 148.47721,114.19922 148.34375,115.48178 148.34375,116.67969 C 148.34375,117.85156 148.46745,118.62793 148.71484,119.00879 C 148.96224,119.38965 149.33659,119.58008 149.83789,119.58008 C 150.86653,119.58008 151.65755,118.97624 152.21094,117.76855 C 152.76432,116.56088 153.20377,114.91211 153.5293,112.82227 C 152.80012,112.80925 152.12304,112.80274 151.49805,112.80273 L 148.74414,112.83203 z "
       id="text16191" />
    <path
       style="font-size:14px;font-style:normal;font-weight:normal;fill:#000000;fill-opacity:1;stroke:none;stroke-width:1px;stroke-linecap:butt;stroke-linejoin:miter;stroke-opacity:1;font-family:Book Antiqua"
       d="M 156.24023,124.04102 L 156.24023,123.71289 L 158.26758,121.60352 C 159.03711,120.80664 159.55175,120.15918 159.81152,119.66113 C 160.07128,119.16309 160.20117,118.70118 160.20117,118.27539 C 160.20117,117.74805 160.0498,117.32618 159.74707,117.00977 C 159.44433,116.69337 159.04297,116.53516 158.54297,116.53516 C 158.21484,116.53516 157.91797,116.59376 157.65234,116.71094 C 157.46094,116.79688 157.32422,116.9043 157.24219,117.0332 C 157.16016,117.16212 157.03906,117.5254 156.87891,118.12305 L 156.52148,118.12305 C 156.64258,117.36133 156.70898,116.81055 156.7207,116.4707 C 157.01367,116.16212 157.33008,115.93751 157.66992,115.79688 C 158.00976,115.65626 158.39453,115.58595 158.82422,115.58594 C 159.58203,115.58595 160.18457,115.79981 160.63184,116.22754 C 161.0791,116.65528 161.30273,117.2168 161.30273,117.91211 C 161.30273,118.51368 161.10058,119.10352 160.69629,119.68164 C 160.29199,120.25977 159.61328,120.98828 158.66016,121.86719 L 157.5293,123.02734 L 159.66797,123.02734 C 160.57421,123.02734 161.2539,123.00195 161.70703,122.95117 L 161.76563,123.00391 C 161.73046,123.22656 161.71288,123.38477 161.71289,123.47852 C 161.71288,123.55273 161.73046,123.72852 161.76563,124.00586 L 161.70703,124.04102 C 160.93359,124.01367 160.07421,124 159.12891,124 C 158.13672,124 157.17383,124.01367 156.24023,124.04102 L 156.24023,124.04102 z "
       id="text16195" />
  </g>
</svg>
