<?xml version="1.0" encoding="UTF-8" standalone="no"?>
<!-- Created with Inkscape (http://www.inkscape.org/) -->

<svg
   xmlns:ns0="http://www.iki.fi/pav/software/textext/"
   xmlns:dc="http://purl.org/dc/elements/1.1/"
   xmlns:cc="http://creativecommons.org/ns#"
   xmlns:rdf="http://www.w3.org/1999/02/22-rdf-syntax-ns#"
   xmlns:svg="http://www.w3.org/2000/svg"
   xmlns="http://www.w3.org/2000/svg"
   xmlns:xlink="http://www.w3.org/1999/xlink"
   xmlns:sodipodi="http://sodipodi.sourceforge.net/DTD/sodipodi-0.dtd"
   xmlns:inkscape="http://www.inkscape.org/namespaces/inkscape"
   sodipodi:docname="robotarm1.svg"
   inkscape:version="0.48.3.1 r9886"
   version="1.1"
   id="svg2"
   height="1052.3622047"
   width="744.09448819">
  <sodipodi:namedview
     id="base"
     pagecolor="#ffffff"
     bordercolor="#666666"
     borderopacity="1.0"
     inkscape:pageopacity="0.0"
     inkscape:pageshadow="2"
     inkscape:zoom="0.7"
     inkscape:cx="61.184763"
     inkscape:cy="628.92794"
     inkscape:document-units="px"
     inkscape:current-layer="svg2"
     showgrid="true"
     showguides="true"
     inkscape:guide-bbox="true"
     inkscape:window-width="1366"
     inkscape:window-height="692"
     inkscape:window-x="0"
     inkscape:window-y="24"
     inkscape:window-maximized="1">
    <inkscape:grid
       type="xygrid"
       id="grid3028" />
  </sodipodi:namedview>
  <defs
     id="defs4">
    <marker
       inkscape:stockid="Arrow1Mend"
       orient="auto"
       refY="0.0"
       refX="0.0"
       id="Arrow1Mend"
       style="overflow:visible;">
      <path
         id="path3831"
         d="M 0.0,0.0 L 5.0,-5.0 L -12.5,0.0 L 5.0,5.0 L 0.0,0.0 z "
         style="fill-rule:evenodd;stroke:#000000;stroke-width:1.0pt;"
         transform="scale(0.4) rotate(180) translate(10,0)" />
    </marker>
  </defs>
  <metadata
     id="metadata7">
    <rdf:RDF>
      <cc:Work
         rdf:about="">
        <dc:format>image/svg+xml</dc:format>
        <dc:type
           rdf:resource="http://purl.org/dc/dcmitype/StillImage" />
        <dc:title />
      </cc:Work>
    </rdf:RDF>
  </metadata>
  <g
     id="layer1"
     inkscape:groupmode="layer"
     inkscape:label="Layer 1">
    <path
       inkscape:connector-curvature="0"
       id="path2991"
       d="m 257.5889,475.56508 102.02541,-34.34519 58.58884,-61.6193 -46.46701,-86.87312"
       style="fill:none;stroke:#000000;stroke-width:4.8;stroke-linecap:butt;stroke-linejoin:miter;stroke-opacity:1;stroke-miterlimit:4;stroke-dasharray:none" />
    <path
       inkscape:connector-curvature="0"
       id="path3767"
       d="m 380.06989,263.18051 11.11168,20.70812 -39.64849,19.95052 -13.13198,-22.72844"
       style="fill:none;stroke:#000000;stroke-width:1px;stroke-linecap:butt;stroke-linejoin:miter;stroke-opacity:1" />
    <path
       inkscape:connector-curvature="0"
       id="path3769"
       d="m 260.61936,475.56508 198.49497,0"
       style="fill:none;stroke:#000000;stroke-width:1;stroke-linecap:butt;stroke-linejoin:miter;stroke-opacity:1;stroke-miterlimit:4;stroke-dasharray:1, 2;stroke-dashoffset:0;opacity:0.72427984" />
    <path
       transform="translate(2.1428571,-1.4285714)"
       d="m 264.28573,475.93362 a 5.7142859,5.3571429 0 1 1 -11.42857,0 5.7142859,5.3571429 0 1 1 11.42857,0 z"
       sodipodi:ry="5.3571429"
       sodipodi:rx="5.7142859"
       sodipodi:cy="475.93362"
       sodipodi:cx="258.57144"
       id="path3771"
       style="fill:#000000;fill-opacity:1;stroke:none"
       sodipodi:type="arc" />
    <path
       transform="translate(101.42856,-36.071443)"
       d="m 264.28573,475.93362 a 5.7142859,5.3571429 0 1 1 -11.42857,0 5.7142859,5.3571429 0 1 1 11.42857,0 z"
       sodipodi:ry="5.3571429"
       sodipodi:rx="5.7142859"
       sodipodi:cy="475.93362"
       sodipodi:cx="258.57144"
       id="path3771-8"
       style="fill:#000000;fill-opacity:1;stroke:none"
       sodipodi:type="arc" />
    <path
       transform="translate(159.2857,-97.14287)"
       d="m 264.28573,475.93362 a 5.7142859,5.3571429 0 1 1 -11.42857,0 5.7142859,5.3571429 0 1 1 11.42857,0 z"
       sodipodi:ry="5.3571429"
       sodipodi:rx="5.7142859"
       sodipodi:cy="475.93362"
       sodipodi:cx="258.57144"
       id="path3771-6"
       style="fill:#000000;fill-opacity:1;stroke:none"
       sodipodi:type="arc" />
    <path
       inkscape:connector-curvature="0"
       id="path3769-3"
       d="M 306.7637,458.49083 507.52199,394.09067"
       style="opacity:0.72427984;fill:none;stroke:#000000;stroke-width:1;stroke-linecap:butt;stroke-linejoin:miter;stroke-miterlimit:4;stroke-opacity:1;stroke-dasharray:1, 2;stroke-dashoffset:0" />
    <path
       inkscape:connector-curvature="0"
       id="path3769-3-0"
       d="M 358.61172,441.44611 504.24543,288.99253"
       style="opacity:0.72427984;fill:none;stroke:#000000;stroke-width:1;stroke-linecap:butt;stroke-linejoin:miter;stroke-miterlimit:4;stroke-opacity:1;stroke-dasharray:1, 2;stroke-dashoffset:0" />
    <g
       id="g3847"
       ns0:preamble=""
       ns0:text="$\\theta_1$"
       transform="matrix(1.7,0,0,1.7,1.4285714,232.14286)">
      <defs
         id="defs3849">
        <g
           id="g3851">
          <symbol
             id="textext-9ec6f48f-0"
             overflow="visible"
             style="overflow:visible">
            <path
               id="path3854"
               d="m 4.53125,-4.984375 c 0,-0.65625 -0.171875,-2.046875 -1.1875,-2.046875 -1.390625,0 -2.921875,2.8125 -2.921875,5.09375 0,0.9375 0.28125,2.046875 1.1875,2.046875 1.40625,0 2.921875,-2.859375 2.921875,-5.09375 z M 1.46875,-3.625 C 1.640625,-4.25 1.84375,-5.046875 2.25,-5.765625 2.515625,-6.25 2.875,-6.8125 3.328125,-6.8125 c 0.484375,0 0.546875,0.640625 0.546875,1.203125 0,0.5 -0.078125,1 -0.3125,1.984375 z m 2,0.328125 C 3.359375,-2.84375 3.15625,-2 2.765625,-1.28125 c -0.34375,0.6875 -0.71875,1.171875 -1.15625,1.171875 -0.328125,0 -0.53125,-0.296875 -0.53125,-1.21875 0,-0.421875 0.0625,-1 0.3125,-1.96875 z m 0,0"
               style="stroke:none"
               inkscape:connector-curvature="0" />
          </symbol>
          <symbol
             id="textext-9ec6f48f-1"
             overflow="visible"
             style="overflow:visible">
            <path
               id="path3857"
               d="m 2.328125,-4.4375 c 0,-0.1875 0,-0.1875 -0.203125,-0.1875 -0.453125,0.4375 -1.078125,0.4375 -1.359375,0.4375 l 0,0.25 c 0.15625,0 0.625,0 1,-0.1875 l 0,3.546875 c 0,0.234375 0,0.328125 -0.6875,0.328125 l -0.265625,0 0,0.25 c 0.125,0 0.984375,-0.03125 1.234375,-0.03125 0.21875,0 1.09375,0.03125 1.25,0.03125 l 0,-0.25 -0.265625,0 c -0.703125,0 -0.703125,-0.09375 -0.703125,-0.328125 z m 0,0"
               style="stroke:none"
               inkscape:connector-curvature="0" />
          </symbol>
        </g>
      </defs>
      <g
         id="textext-9ec6f48f-2">
        <g
           id="g3860"
           style="fill:#000000;fill-opacity:1">
          <use
             id="use3862"
             y="134.765"
             x="223.43201"
             xlink:href="#textext-9ec6f48f-0"
             width="744.09448"
             height="1052.3622" />
        </g>
        <g
           id="g3864"
           style="fill:#000000;fill-opacity:1">
          <use
             id="use3866"
             y="136.259"
             x="228.10899"
             xlink:href="#textext-9ec6f48f-1"
             width="744.09448"
             height="1052.3622" />
        </g>
      </g>
    </g>
    <g
       transform="matrix(1.7,0,0,1.7,42.142857,177.85714)"
       ns0:text="$\\theta_2$"
       ns0:preamble=""
       id="g3916">
      <defs
         id="defs3918">
        <g
           id="g3920">
          <symbol
             style="overflow:visible"
             overflow="visible"
             id="textext-a579f573-0">
            <path
               inkscape:connector-curvature="0"
               style="stroke:none"
               d="m 4.53125,-4.984375 c 0,-0.65625 -0.171875,-2.046875 -1.1875,-2.046875 -1.390625,0 -2.921875,2.8125 -2.921875,5.09375 0,0.9375 0.28125,2.046875 1.1875,2.046875 1.40625,0 2.921875,-2.859375 2.921875,-5.09375 z M 1.46875,-3.625 C 1.640625,-4.25 1.84375,-5.046875 2.25,-5.765625 2.515625,-6.25 2.875,-6.8125 3.328125,-6.8125 c 0.484375,0 0.546875,0.640625 0.546875,1.203125 0,0.5 -0.078125,1 -0.3125,1.984375 z m 2,0.328125 C 3.359375,-2.84375 3.15625,-2 2.765625,-1.28125 c -0.34375,0.6875 -0.71875,1.171875 -1.15625,1.171875 -0.328125,0 -0.53125,-0.296875 -0.53125,-1.21875 0,-0.421875 0.0625,-1 0.3125,-1.96875 z m 0,0"
               id="path3923" />
          </symbol>
          <symbol
             style="overflow:visible"
             overflow="visible"
             id="textext-a579f573-1">
            <path
               inkscape:connector-curvature="0"
               style="stroke:none"
               d="m 3.515625,-1.265625 -0.234375,0 c -0.015625,0.15625 -0.09375,0.5625 -0.1875,0.625 -0.046875,0.046875 -0.578125,0.046875 -0.6875,0.046875 l -1.28125,0 c 0.734375,-0.640625 0.984375,-0.84375 1.390625,-1.171875 0.515625,-0.40625 1,-0.84375 1,-1.5 0,-0.84375 -0.734375,-1.359375 -1.625,-1.359375 -0.859375,0 -1.453125,0.609375 -1.453125,1.25 0,0.34375 0.296875,0.390625 0.375,0.390625 0.15625,0 0.359375,-0.125 0.359375,-0.375 0,-0.125 -0.046875,-0.375 -0.40625,-0.375 C 0.984375,-4.21875 1.453125,-4.375 1.78125,-4.375 c 0.703125,0 1.0625,0.546875 1.0625,1.109375 0,0.609375 -0.4375,1.078125 -0.65625,1.328125 L 0.515625,-0.265625 C 0.4375,-0.203125 0.4375,-0.1875 0.4375,0 l 2.875,0 z m 0,0"
               id="path3926" />
          </symbol>
        </g>
      </defs>
      <g
         id="textext-a579f573-2">
        <g
           style="fill:#000000;fill-opacity:1"
           id="g3929">
          <use
             height="1052.3622"
             width="744.09448"
             xlink:href="#textext-a579f573-0"
             x="223.43201"
             y="134.765"
             id="use3931" />
        </g>
        <g
           style="fill:#000000;fill-opacity:1"
           id="g3933">
          <use
             height="1052.3622"
             width="744.09448"
             xlink:href="#textext-a579f573-1"
             x="228.10899"
             y="136.259"
             id="use3935" />
        </g>
      </g>
    </g>
  </g>
  <g
     id="g4117"
     ns0:preamble=""
     ns0:text="$\\theta_3$"
     transform="matrix(1.7,0,0,1.7,34.163163,104.3575)">
    <defs
       id="defs4119">
      <g
         id="g4121">
        <symbol
           id="textext-dcd8a564-0"
           overflow="visible"
           style="overflow:visible">
          <path
             id="path4124"
             d="m 4.53125,-4.984375 c 0,-0.65625 -0.171875,-2.046875 -1.1875,-2.046875 -1.390625,0 -2.921875,2.8125 -2.921875,5.09375 0,0.9375 0.28125,2.046875 1.1875,2.046875 1.40625,0 2.921875,-2.859375 2.921875,-5.09375 z M 1.46875,-3.625 C 1.640625,-4.25 1.84375,-5.046875 2.25,-5.765625 2.515625,-6.25 2.875,-6.8125 3.328125,-6.8125 c 0.484375,0 0.546875,0.640625 0.546875,1.203125 0,0.5 -0.078125,1 -0.3125,1.984375 z m 2,0.328125 C 3.359375,-2.84375 3.15625,-2 2.765625,-1.28125 c -0.34375,0.6875 -0.71875,1.171875 -1.15625,1.171875 -0.328125,0 -0.53125,-0.296875 -0.53125,-1.21875 0,-0.421875 0.0625,-1 0.3125,-1.96875 z m 0,0"
             style="stroke:none"
             inkscape:connector-curvature="0" />
        </symbol>
        <symbol
           id="textext-dcd8a564-1"
           overflow="visible"
           style="overflow:visible">
          <path
             id="path4127"
             d="m 1.90625,-2.328125 c 0.546875,0 0.9375,0.375 0.9375,1.125 0,0.859375 -0.515625,1.125 -0.90625,1.125 -0.28125,0 -0.90625,-0.078125 -1.1875,-0.5 0.328125,0 0.40625,-0.234375 0.40625,-0.390625 0,-0.21875 -0.171875,-0.375 -0.390625,-0.375 -0.1875,0 -0.390625,0.125 -0.390625,0.40625 0,0.65625 0.71875,1.078125 1.5625,1.078125 0.96875,0 1.640625,-0.65625 1.640625,-1.34375 0,-0.546875 -0.4375,-1.09375 -1.203125,-1.25 0.71875,-0.265625 0.984375,-0.78125 0.984375,-1.21875 0,-0.546875 -0.625,-0.953125 -1.40625,-0.953125 -0.765625,0 -1.359375,0.375 -1.359375,0.9375 0,0.234375 0.15625,0.359375 0.359375,0.359375 0.21875,0 0.359375,-0.15625 0.359375,-0.34375 0,-0.203125 -0.140625,-0.359375 -0.359375,-0.375 0.25,-0.296875 0.71875,-0.375 0.984375,-0.375 0.3125,0 0.75,0.15625 0.75,0.75 0,0.296875 -0.09375,0.625 -0.28125,0.828125 -0.21875,0.265625 -0.421875,0.28125 -0.765625,0.3125 -0.171875,0.015625 -0.1875,0.015625 -0.21875,0.015625 -0.015625,0 -0.078125,0.015625 -0.078125,0.09375 0,0.09375 0.0625,0.09375 0.1875,0.09375 z m 0,0"
             style="stroke:none"
             inkscape:connector-curvature="0" />
        </symbol>
      </g>
    </defs>
    <g
       id="textext-dcd8a564-2">
      <g
         id="g4130"
         style="fill:#000000;fill-opacity:1">
        <use
           id="use4132"
           y="134.765"
           x="223.43201"
           xlink:href="#textext-dcd8a564-0"
           width="744.09448"
           height="1052.3622" />
      </g>
      <g
         id="g4134"
         style="fill:#000000;fill-opacity:1">
        <use
           id="use4136"
           y="136.259"
           x="228.10899"
           xlink:href="#textext-dcd8a564-1"
           width="744.09448"
           height="1052.3622" />
      </g>
    </g>
  </g>
  <path
     style="fill:#483e37;stroke:#000000;stroke-width:0.72507733px;stroke-linecap:butt;stroke-linejoin:miter;stroke-opacity:1"
     d="m 326.12397,376.77322 2.96218,-34.86279 -71.09228,-24.90198 -31.39909,47.0874 10.0714,39.39041 z"
     id="path4223"
     inkscape:connector-curvature="0" />
  <path
     style="fill:#483e37;fill-opacity:1;stroke:none"
     d="m 488.57291,448.49549 c -0.85587,-11.94489 -3.75535,-80.914 -3.41423,-81.21337 0.15523,-0.13623 14.34515,-4.632 31.53316,-9.99061 25.07065,-7.81612 31.48467,-9.48771 32.43292,-8.45248 4.9859,5.44326 46.99162,59.66601 46.74167,60.33612 -0.17538,0.47022 -8.27383,9.22636 -17.99655,19.4581 l -17.67767,18.60315 -30.30458,4.25841 c -16.66752,2.34212 -32.64543,4.52946 -35.50647,4.86076 l -5.2019,0.60237 -0.60635,-8.46245 0,0 z"
     id="path4227"
     inkscape:connector-curvature="0" />
  <path
     style="fill:none;stroke:#251212;stroke-width:1.39999998;stroke-linecap:butt;stroke-linejoin:miter;stroke-miterlimit:4;stroke-opacity:0.72602737;stroke-dasharray:none;marker-end:url(#Arrow1Mend)"
     d="m 180,512.36218 0,-130"
     id="path3030"
     inkscape:connector-curvature="0" />
  <path
     style="fill:none;stroke:#251212;stroke-width:1.39999998;stroke-linecap:butt;stroke-linejoin:miter;stroke-miterlimit:4;stroke-opacity:0.72602737;stroke-dasharray:none;marker-end:url(#Arrow1Mend)"
     d="m 180,512.36218 130,0"
     id="path3030-3"
     inkscape:connector-curvature="0" />
  <g
     transform="matrix(1.7,0,0,1.7,-88.20781,304.96531)"
     ns0:text="$x$"
     ns0:preamble=""
     id="g4318">
    <defs
       id="defs4320">
      <g
         id="g4322">
        <symbol
           style="overflow:visible"
           overflow="visible"
           id="textext-42471be1-0">
          <path
             inkscape:connector-curvature="0"
             style="stroke:none"
             d="M 3.328125,-3.015625 C 3.390625,-3.265625 3.625,-4.1875 4.3125,-4.1875 c 0.046875,0 0.296875,0 0.5,0.125 C 4.53125,-4 4.34375,-3.765625 4.34375,-3.515625 c 0,0.15625 0.109375,0.34375 0.375,0.34375 0.21875,0 0.53125,-0.171875 0.53125,-0.578125 0,-0.515625 -0.578125,-0.65625 -0.921875,-0.65625 -0.578125,0 -0.921875,0.53125 -1.046875,0.75 -0.25,-0.65625 -0.78125,-0.75 -1.078125,-0.75 -1.03125,0 -1.609375,1.28125 -1.609375,1.53125 0,0.109375 0.109375,0.109375 0.125,0.109375 0.078125,0 0.109375,-0.03125 0.125,-0.109375 0.34375,-1.0625 1,-1.3125 1.34375,-1.3125 0.1875,0 0.53125,0.09375 0.53125,0.671875 0,0.3125 -0.171875,0.96875 -0.53125,2.375 -0.15625,0.609375 -0.515625,1.03125 -0.953125,1.03125 -0.0625,0 -0.28125,0 -0.5,-0.125 0.25,-0.0625 0.46875,-0.265625 0.46875,-0.546875 0,-0.265625 -0.21875,-0.34375 -0.359375,-0.34375 -0.3125,0 -0.546875,0.25 -0.546875,0.578125 0,0.453125 0.484375,0.65625 0.921875,0.65625 0.671875,0 1.03125,-0.703125 1.046875,-0.75 0.125,0.359375 0.484375,0.75 1.078125,0.75 1.03125,0 1.59375,-1.28125 1.59375,-1.53125 0,-0.109375 -0.078125,-0.109375 -0.109375,-0.109375 -0.09375,0 -0.109375,0.046875 -0.140625,0.109375 -0.328125,1.078125 -1,1.3125 -1.3125,1.3125 -0.390625,0 -0.546875,-0.3125 -0.546875,-0.65625 0,-0.21875 0.046875,-0.4375 0.15625,-0.875 z m 0,0"
             id="path4325" />
        </symbol>
      </g>
    </defs>
    <g
       id="textext-42471be1-1">
      <g
         style="fill:#000000;fill-opacity:1"
         id="g4328">
        <use
           height="1052.3622"
           width="744.09448"
           xlink:href="#textext-42471be1-0"
           x="223.43201"
           y="134.765"
           id="use4330" />
      </g>
    </g>
  </g>
  <g
     id="g4458"
     ns0:preamble=""
     ns0:text="$y$\n"
     transform="matrix(1.7,0,0,1.7,-226.61406,172.33562)">
    <defs
       id="defs4460">
      <g
         id="g4462">
        <symbol
           id="textext-b09d839e-0"
           overflow="visible"
           style="overflow:visible">
          <path
             id="path4465"
             d="m 4.84375,-3.796875 c 0.046875,-0.140625 0.046875,-0.15625 0.046875,-0.234375 0,-0.171875 -0.140625,-0.265625 -0.296875,-0.265625 -0.09375,0 -0.25,0.0625 -0.34375,0.203125 -0.015625,0.0625 -0.109375,0.359375 -0.140625,0.546875 -0.078125,0.25 -0.140625,0.53125 -0.203125,0.796875 l -0.453125,1.796875 c -0.03125,0.140625 -0.46875,0.84375 -1.125,0.84375 -0.5,0 -0.609375,-0.4375 -0.609375,-0.8125 C 1.71875,-1.375 1.890625,-2 2.21875,-2.875 2.375,-3.28125 2.421875,-3.390625 2.421875,-3.59375 c 0,-0.4375 -0.3125,-0.8125 -0.8125,-0.8125 -0.953125,0 -1.3125,1.453125 -1.3125,1.53125 0,0.109375 0.09375,0.109375 0.109375,0.109375 0.109375,0 0.109375,-0.03125 0.15625,-0.1875 0.28125,-0.9375 0.671875,-1.234375 1.015625,-1.234375 0.078125,0 0.25,0 0.25,0.3125 0,0.25 -0.109375,0.515625 -0.171875,0.703125 -0.40625,1.0625 -0.578125,1.625 -0.578125,2.09375 0,0.890625 0.625,1.1875 1.21875,1.1875 0.390625,0 0.71875,-0.171875 1,-0.453125 -0.125,0.515625 -0.25,1.015625 -0.640625,1.546875 -0.265625,0.328125 -0.640625,0.625 -1.09375,0.625 -0.140625,0 -0.59375,-0.03125 -0.765625,-0.421875 0.15625,0 0.296875,0 0.421875,-0.125 C 1.328125,1.203125 1.421875,1.0625 1.421875,0.875 1.421875,0.5625 1.15625,0.53125 1.0625,0.53125 0.828125,0.53125 0.5,0.6875 0.5,1.171875 c 0,0.5 0.4375,0.875 1.0625,0.875 1.015625,0 2.046875,-0.90625 2.328125,-2.03125 z m 0,0"
             style="stroke:none"
             inkscape:connector-curvature="0" />
        </symbol>
      </g>
    </defs>
    <g
       id="textext-b09d839e-1">
      <g
         id="g4468"
         style="fill:#000000;fill-opacity:1">
        <use
           id="use4470"
           y="134.765"
           x="223.43201"
           xlink:href="#textext-b09d839e-0"
           width="744.09448"
           height="1052.3622" />
      </g>
    </g>
  </g>
</svg>
